<?xml version="1.0" encoding="UTF-8"?>
<svg width="455.56" height="89.14" preserveAspectRatio="xMidYMid" version="1.1" viewBox="-57.797 14 455.56 89.14" xmlns="http://www.w3.org/2000/svg">
 <defs>
  <linearGradient id="editing-shiny-gradient" x1="7.0721" x2="153.58" y1="-77.809" y2="-12.58" gradientTransform="scale(2.7209 .36752)" gradientUnits="userSpaceOnUse">
   <stop stop-color="#ffb200" offset="0"/>
   <stop stop-color="#e10057" offset=".5"/>
   <stop stop-color="#5A1A80" offset="1"/>
  </linearGradient>
  <linearGradient id="editing-shiny-gradient2" x1=".13966" x2=".13966" y1="-125.38" y2="34.991" gradientTransform="scale(2.7209 .36752)" gradientUnits="userSpaceOnUse">
   <stop stop-color="#fff" stop-opacity=".8" offset=".2"/>
   <stop stop-color="#fff" stop-opacity="0" offset=".8"/>
  </linearGradient>
  <filter id="editing-shiny2" x="0" y="0" width="1" height="1">
   <feMorphology radius="2"/>
  </filter>
  <filter id="editing-shiny" x="-.022" y="-.16288" width="1.044" height="1.5124">
   <feFlood flood-color="#fff" result="flood"/>
   <feConvolveMatrix divisor="1" in="SourceGraphic" kernelMatrix="0 0 0 0 0 0 0 0 0 0 0 1 1 0 0 0 0 0 0 1 1 0 0 0 0 0 1 0 0 1 0 0 0 0 1 0 0 1 0 0 0 1 0 0 0 0 1 0 0 1 1 0 0 1 1 0 0 0 0 1 1 0 0 0 " order="8,8" result="conv"/>
   <feOffset dx="0" dy="4" in="conv" result="offset"/>
   <feComposite in="flood" in2="offset" operator="in" result="comp"/>
   <feGaussianBlur in="offset" result="shadow" stdDeviation="3"/>
   <feColorMatrix in="shadow" result="dark-shadow" values="0.7 0 0 0 0  0 0.7 0 0 0  0 0 0.7 0 0  0 0 0 0.3 0"/>
   <feOffset dx="0" dy="4" in="dark-shadow" result="offset-shadow"/>
   <feOffset dx="0" dy="2" in="conv" result="offset-2"/>
   <feComposite in="offset" in2="offset-2" operator="out" result="edge-diff"/>
   <feGaussianBlur in="edge-diff" result="edge-blur" stdDeviation="1"/>
   <feColorMatrix in="edge-blur" result="edge-shadow" values="0 0 0 0 0  0 0 0 0 0  0 0 0 0 0  0 0 0 0.5 0"/>
   <feComposite in="edge-shadow" in2="offset" operator="in" result="edge-shadow-in"/>
   <feOffset dx="0" dy="1" in="edge-shadow-in" result="edge-shadow-final"/>
   <feMerge result="out">
    <feMergeNode in="offset-shadow"/>
    <feMergeNode in="comp"/>
    <feMergeNode in="edge-shadow-final"/>
    <feMergeNode in="SourceGraphic"/>
   </feMerge>
  </filter>
 </defs>
 <g transform="translate(-80.017 -34.79)" filter="url(#editing-shiny)">
  <g transform="translate(31.44 104.47)">
   <path d="m14.34 0h-13.96l8.13-42.24h14.08zm55.74 1.28q-7.74 0-7.74-6.02 0-2.62 1.12-7.71t1.5-7.13q0.9-4.68 0.9-6.15 0-3.26-2.44-3.26-1.6 0-3.13 2.21-1.54 2.2-2.24 6.62l-3.97 20.16-12.48 1.28 3.46-17.41q0.57-2.88 1.08-6.14 0.52-3.27 0.52-3.78 0-2.94-2.18-2.94-1.47 0-3.07 2.17-1.6 2.18-2.5 6.66l-3.9 20.16-12.61 1.28 6.72-33.92 10.43-1.28-1.09 6.46q1.67-3.45 4.74-4.96 3.07-1.5 7.87-1.5 2.75 0 4.55 1.34 1.79 1.35 2.36 3.52 1.09-2.24 3.88-3.55 2.78-1.31 6.2-1.31 3.43 0 5.12 0.74 1.7 0.73 2.72 1.95 1.73 2.24 1.73 6.33 0 4.04-1.73 12.42-0.89 4.1-0.89 5.6t0.86 2.4q0.87 0.9 2.15 1.02-0.64 2.18-2.85 3.46t-5.09 1.28zm15.65-3.2q-1.51-1.66-2.18-4.29-0.67-2.62-0.67-6.91t1.47-8.19q1.47-3.91 4.16-6.72 5.51-5.89 14.59-5.89 3.27 0 5.64 1.09l10.94-1.09-4.74 24.96q-0.19 0.77-0.19 2.18 0 1.4 0.87 2.3 0.86 0.9 2.14 1.02-0.64 2.18-2.98 3.46-2.33 1.28-4.96 1.28-2.62 0-4.38-0.99t-2.27-2.66q-1.03 1.6-3.2 2.63-2.18 1.02-5.09 1.02t-5.28-0.77-3.87-2.43zm13.5-25.98q-0.73 1.15-1.37 3.1t-1.7 7.17q-1.06 5.21-1.06 8.93 0 3.71 0.58 4.8 0.58 1.08 1.6 1.08 2.05 0 3.55-1.95 1.51-1.95 2.08-5.41l3.39-18.75q-1.34-1.15-2.91-1.15t-2.49 0.51q-0.93 0.51-1.67 1.67zm28.19 1.15q2.18-3.07 5.48-5.12 3.29-2.05 7.32-2.05 4.04 0 5.96 1.28l12.54-1.28-4.35 24.58q-2.24 12.54-6.98 17.47-4.54 4.67-13.37 4.67-6.72 0-10.56-2.11t-3.84-5.63q0-2.63 1.98-4.13 1.98-1.51 5.06-1.51 2.68 0 4.73 1.22 1.22 0.64 1.79 1.54-1.47 1.28-1.47 3.39 0 2.75 2.56 2.75 4.29 0 6.72-10.11 0.71-2.75 1.28-5.51-2.88 3.52-9.41 3.52-4.54 0-7.16-2.17-2.63-2.18-2.63-7.3 0-3.2 1.09-6.81 1.09-3.62 3.26-6.69zm8.32 13.69q0 4.36 2.24 4.36 1.54 0 3.01-1.67 1.15-1.34 1.6-3.33l3.27-16.44q-0.32-0.07-0.64-0.2-0.64-0.25-1.48-0.25-3.9 0-6.2 6.4-1.8 4.99-1.8 11.13zm51.4 2.24q1.6 1.09 1.6 3.49t-1.22 3.94q-1.22 1.53-3.2 2.56-4.1 2.11-8.51 2.11-4.42 0-7.01-0.96t-4.32-2.75q-3.39-3.39-3.39-9.6 0-9.67 5.25-15.55 5.63-6.34 15.42-6.34 6.08 0 9.09 2.56 2.24 1.92 2.24 5.06 0 11.26-19.46 11.26-0.25 1.66-0.25 3.07 0 2.95 1.31 4.07t3.74 1.12 5.03-1.12q2.59-1.12 3.68-2.92zm-13.06-6.97q4.54 0 7.17-2.82 2.62-2.69 2.62-6.97 0-1.48-0.54-2.28-0.55-0.8-1.63-0.8-1.09 0-2.02 0.42t-1.89 1.82q-2.37 3.2-3.71 10.63zm60.29-2.82 12.93-1.15q-4.61 10.11-4.61 21.82-1.73 1.22-4.26 1.22t-4.13-1.18q-1.6-1.19-1.92-2.4-1.6 1.66-4.19 2.62t-5.34 0.96-5.15-0.9q-2.4-0.89-4.26-2.88-4.1-4.35-4.1-12.6 0-12.8 6.85-20.48 7.04-7.94 19.52-7.94 8.64 0 11.71 4.48 0.96 1.41 0.96 3.1 0 1.7-0.73 3.14-0.74 1.44-1.89 2.59-2.75 2.56-6.14 2.56-1.35 0-2.63-0.45 0.26-1.92 0.26-4.16t-0.16-3.26-0.55-1.86q-0.83-1.72-2.65-1.72-1.83 0-3.84 1.95-2.02 1.95-3.62 5.15-3.52 7.17-3.52 15.81 0 3.97 1.54 6.78 1.66 3.07 4.61 3.07 1.02 0 1.95-0.51t1.31-0.89zm18.85 18.69q-1.51-1.66-2.18-4.29-0.67-2.62-0.67-6.91t1.47-8.19q1.47-3.91 4.16-6.72 5.5-5.89 14.59-5.89 3.27 0 5.63 1.09l10.95-1.09-4.74 24.96q-0.19 0.77-0.19 2.18 0 1.4 0.86 2.3 0.87 0.9 2.15 1.02-0.64 2.18-2.98 3.46-2.33 1.28-4.96 1.28-2.62 0-4.38-0.99t-2.27-2.66q-1.03 1.6-3.2 2.63-2.18 1.02-5.09 1.02t-5.28-0.77-3.87-2.43zm13.5-25.98q-0.74 1.15-1.38 3.1t-1.69 7.17q-1.06 5.21-1.06 8.93 0 3.71 0.58 4.8 0.57 1.08 1.6 1.08 2.05 0 3.55-1.95t2.08-5.41l3.39-18.75q-1.34-1.15-2.91-1.15t-2.5 0.51q-0.92 0.51-1.66 1.67zm39.2 24.38q-1.98 4.8-8.32 4.8-3.2 0-5.25-2.24-1.66-1.86-1.66-3.97 0-4.8 2.24-15.29l4.67-24.58 12.99-1.28-6.21 32.38q-1.08 4.74-1.08 6.4 0 3.65 2.62 3.78zm20.74 0q-1.99 4.8-8.32 4.8-3.2 0-5.25-2.24-1.67-1.86-1.67-3.97 0-4.8 2.24-15.29l4.68-24.58 12.99-1.28-6.21 32.38q-1.09 4.74-1.09 6.4 0 3.65 2.63 3.78zm31.36-7.3q1.6 1.09 1.6 3.49t-1.22 3.94q-1.22 1.53-3.2 2.56-4.1 2.11-8.51 2.11-4.42 0-7.01-0.96t-4.32-2.75q-3.39-3.39-3.39-9.6 0-9.67 5.25-15.55 5.63-6.34 15.42-6.34 6.08 0 9.09 2.56 2.24 1.92 2.24 5.06 0 11.26-19.46 11.26-0.25 1.66-0.25 3.07 0 2.95 1.31 4.07t3.74 1.12 5.03-1.12q2.59-1.12 3.68-2.92zm-13.06-6.97q4.54 0 7.17-2.82 2.62-2.69 2.62-6.97 0-1.48-0.54-2.28-0.55-0.8-1.63-0.8-1.09 0-2.02 0.42t-1.89 1.82q-2.37 3.2-3.71 10.63zm41.22-0.19q2.3-4.1 2.3-8.26 0-2.75-1.98-2.75-1.54 0-3.14 2.62-1.66 2.63-2.18 6.02l-3.32 20.35-13.25 1.28 6.53-33.92 10.56-1.28-1.16 6.46q3.14-6.46 10.18-6.46 3.71 0 5.73 1.92 2.01 1.92 2.01 5.86 0 3.93-2.59 6.43-2.59 2.49-7.01 2.49-1.92 0-2.68-0.76zm33.66 10.75q-3.33 3.45-9.41 3.45-7.61 0-9.21-5.56-0.52-1.67-0.52-3.52 0-1.86 0.39-3.78l3.01-16 12.99-1.28-3.52 18.62q-0.13 0.84-0.32 1.73-0.19 0.9-0.19 1.83 0 0.92 0.32 1.53t0.76 0.99q0.77 0.52 2.15 0.52 1.37 0 2.56-1.67 1.18-1.66 1.76-4.54l3.52-17.73 12.61-1.28-4.8 25.15q-2.37 12.29-7.24 17.15-2.49 2.5-5.72 3.49-3.24 0.99-7.4 0.99-6.72 0-10.56-2.11t-3.84-5.63q0-2.62 1.99-4.13 1.98-1.5 5.05-1.5 2.69 0 4.74 1.15 1.22 0.7 1.79 1.6-1.47 1.28-1.47 3.39 0 2.82 2.56 2.82 4.22 0 6.66-9.73 0.7-2.88 1.34-5.95z" fill="url(#editing-shiny-gradient)"/>
  </g>
 </g>
 <g transform="translate(-80.017 -34.79)" filter="url(#editing-shiny2)">
  <g transform="translate(31.44 104.47)">
   <path d="m14.34 0h-13.96l8.13-42.24h14.08zm55.74 1.28q-7.74 0-7.74-6.02 0-2.62 1.12-7.71t1.5-7.13q0.9-4.68 0.9-6.15 0-3.26-2.44-3.26-1.6 0-3.13 2.21-1.54 2.2-2.24 6.62l-3.97 20.16-12.48 1.28 3.46-17.41q0.57-2.88 1.08-6.14 0.52-3.27 0.52-3.78 0-2.94-2.18-2.94-1.47 0-3.07 2.17-1.6 2.18-2.5 6.66l-3.9 20.16-12.61 1.28 6.72-33.92 10.43-1.28-1.09 6.46q1.67-3.45 4.74-4.96 3.07-1.5 7.87-1.5 2.75 0 4.55 1.34 1.79 1.35 2.36 3.52 1.09-2.24 3.88-3.55 2.78-1.31 6.2-1.31 3.43 0 5.12 0.74 1.7 0.73 2.72 1.95 1.73 2.24 1.73 6.33 0 4.04-1.73 12.42-0.89 4.1-0.89 5.6t0.86 2.4q0.87 0.9 2.15 1.02-0.64 2.18-2.85 3.46t-5.09 1.28zm15.65-3.2q-1.51-1.66-2.18-4.29-0.67-2.62-0.67-6.91t1.47-8.19q1.47-3.91 4.16-6.72 5.51-5.89 14.59-5.89 3.27 0 5.64 1.09l10.94-1.09-4.74 24.96q-0.19 0.77-0.19 2.18 0 1.4 0.87 2.3 0.86 0.9 2.14 1.02-0.64 2.18-2.98 3.46-2.33 1.28-4.96 1.28-2.62 0-4.38-0.99t-2.27-2.66q-1.03 1.6-3.2 2.63-2.18 1.02-5.09 1.02t-5.28-0.77-3.87-2.43zm13.5-25.98q-0.73 1.15-1.37 3.1t-1.7 7.17q-1.06 5.21-1.06 8.93 0 3.71 0.58 4.8 0.58 1.08 1.6 1.08 2.05 0 3.55-1.95 1.51-1.95 2.08-5.41l3.39-18.75q-1.34-1.15-2.91-1.15t-2.49 0.51q-0.93 0.51-1.67 1.67zm28.19 1.15q2.18-3.07 5.48-5.12 3.29-2.05 7.32-2.05 4.04 0 5.96 1.28l12.54-1.28-4.35 24.58q-2.24 12.54-6.98 17.47-4.54 4.67-13.37 4.67-6.72 0-10.56-2.11t-3.84-5.63q0-2.63 1.98-4.13 1.98-1.51 5.06-1.51 2.68 0 4.73 1.22 1.22 0.64 1.79 1.54-1.47 1.28-1.47 3.39 0 2.75 2.56 2.75 4.29 0 6.72-10.11 0.71-2.75 1.28-5.51-2.88 3.52-9.41 3.52-4.54 0-7.16-2.17-2.63-2.18-2.63-7.3 0-3.2 1.09-6.81 1.09-3.62 3.26-6.69zm8.32 13.69q0 4.36 2.24 4.36 1.54 0 3.01-1.67 1.15-1.34 1.6-3.33l3.27-16.44q-0.32-0.07-0.64-0.2-0.64-0.25-1.48-0.25-3.9 0-6.2 6.4-1.8 4.99-1.8 11.13zm51.4 2.24q1.6 1.09 1.6 3.49t-1.22 3.94q-1.22 1.53-3.2 2.56-4.1 2.11-8.51 2.11-4.42 0-7.01-0.96t-4.32-2.75q-3.39-3.39-3.39-9.6 0-9.67 5.25-15.55 5.63-6.34 15.42-6.34 6.08 0 9.09 2.56 2.24 1.92 2.24 5.06 0 11.26-19.46 11.26-0.25 1.66-0.25 3.07 0 2.95 1.31 4.07t3.74 1.12 5.03-1.12q2.59-1.12 3.68-2.92zm-13.06-6.97q4.54 0 7.17-2.82 2.62-2.69 2.62-6.97 0-1.48-0.54-2.28-0.55-0.8-1.63-0.8-1.09 0-2.02 0.42t-1.89 1.82q-2.37 3.2-3.71 10.63zm60.29-2.82 12.93-1.15q-4.61 10.11-4.61 21.82-1.73 1.22-4.26 1.22t-4.13-1.18q-1.6-1.19-1.92-2.4-1.6 1.66-4.19 2.62t-5.34 0.96-5.15-0.9q-2.4-0.89-4.26-2.88-4.1-4.35-4.1-12.6 0-12.8 6.85-20.48 7.04-7.94 19.52-7.94 8.64 0 11.71 4.48 0.96 1.41 0.96 3.1 0 1.7-0.73 3.14-0.74 1.44-1.89 2.59-2.75 2.56-6.14 2.56-1.35 0-2.63-0.45 0.26-1.92 0.26-4.16t-0.16-3.26-0.55-1.86q-0.83-1.72-2.65-1.72-1.83 0-3.84 1.95-2.02 1.95-3.62 5.15-3.52 7.17-3.52 15.81 0 3.97 1.54 6.78 1.66 3.07 4.61 3.07 1.02 0 1.95-0.51t1.31-0.89zm18.85 18.69q-1.51-1.66-2.18-4.29-0.67-2.62-0.67-6.91t1.47-8.19q1.47-3.91 4.16-6.72 5.5-5.89 14.59-5.89 3.27 0 5.63 1.09l10.95-1.09-4.74 24.96q-0.19 0.77-0.19 2.18 0 1.4 0.86 2.3 0.87 0.9 2.15 1.02-0.64 2.18-2.98 3.46-2.33 1.28-4.96 1.28-2.62 0-4.38-0.99t-2.27-2.66q-1.03 1.6-3.2 2.63-2.18 1.02-5.09 1.02t-5.28-0.77-3.87-2.43zm13.5-25.98q-0.74 1.15-1.38 3.1t-1.69 7.17q-1.06 5.21-1.06 8.93 0 3.71 0.58 4.8 0.57 1.08 1.6 1.08 2.05 0 3.55-1.95t2.08-5.41l3.39-18.75q-1.34-1.15-2.91-1.15t-2.5 0.51q-0.92 0.51-1.66 1.67zm39.2 24.38q-1.98 4.8-8.32 4.8-3.2 0-5.25-2.24-1.66-1.86-1.66-3.97 0-4.8 2.24-15.29l4.67-24.58 12.99-1.28-6.21 32.38q-1.08 4.74-1.08 6.4 0 3.65 2.62 3.78zm20.74 0q-1.99 4.8-8.32 4.8-3.2 0-5.25-2.24-1.67-1.86-1.67-3.97 0-4.8 2.24-15.29l4.68-24.58 12.99-1.28-6.21 32.38q-1.09 4.74-1.09 6.4 0 3.65 2.63 3.78zm31.36-7.3q1.6 1.09 1.6 3.49t-1.22 3.94q-1.22 1.53-3.2 2.56-4.1 2.11-8.51 2.11-4.42 0-7.01-0.96t-4.32-2.75q-3.39-3.39-3.39-9.6 0-9.67 5.25-15.55 5.63-6.34 15.42-6.34 6.08 0 9.09 2.56 2.24 1.92 2.24 5.06 0 11.26-19.46 11.26-0.25 1.66-0.25 3.07 0 2.95 1.31 4.07t3.74 1.12 5.03-1.12q2.59-1.12 3.68-2.92zm-13.06-6.97q4.54 0 7.17-2.82 2.62-2.69 2.62-6.97 0-1.48-0.54-2.28-0.55-0.8-1.63-0.8-1.09 0-2.02 0.42t-1.89 1.82q-2.37 3.2-3.71 10.63zm41.22-0.19q2.3-4.1 2.3-8.26 0-2.75-1.98-2.75-1.54 0-3.14 2.62-1.66 2.63-2.18 6.02l-3.32 20.35-13.25 1.28 6.53-33.92 10.56-1.28-1.16 6.46q3.14-6.46 10.18-6.46 3.71 0 5.73 1.92 2.01 1.92 2.01 5.86 0 3.93-2.59 6.43-2.59 2.49-7.01 2.49-1.92 0-2.68-0.76zm33.66 10.75q-3.33 3.45-9.41 3.45-7.61 0-9.21-5.56-0.52-1.67-0.52-3.52 0-1.86 0.39-3.78l3.01-16 12.99-1.28-3.52 18.62q-0.13 0.84-0.32 1.73-0.19 0.9-0.19 1.83 0 0.92 0.32 1.53t0.76 0.99q0.77 0.52 2.15 0.52 1.37 0 2.56-1.67 1.18-1.66 1.76-4.54l3.52-17.73 12.61-1.28-4.8 25.15q-2.37 12.29-7.24 17.15-2.49 2.5-5.72 3.49-3.24 0.99-7.4 0.99-6.72 0-10.56-2.11t-3.84-5.63q0-2.62 1.99-4.13 1.98-1.5 5.05-1.5 2.69 0 4.74 1.15 1.22 0.7 1.79 1.6-1.47 1.28-1.47 3.39 0 2.82 2.56 2.82 4.22 0 6.66-9.73 0.7-2.88 1.34-5.95z" fill="url(#editing-shiny-gradient2)"/>
  </g>
 </g>
 <style>text {
  font-size: 64px;
  font-family: Arial Black;
  dominant-baseline: central;
  text-anchor: middle;
}</style>
</svg>
