<?xml version="1.0" encoding="utf-8"?>
<svg width="615.5937133789063px" height="122px" viewBox="-57.796856689453136 14 615.5937133789063 122" style="background: rgba(0, 0, 0, 0);" preserveAspectRatio="xMidYMid" xmlns="http://www.w3.org/2000/svg">
  <defs>
    <linearGradient id="editing-shiny-gradient" x1="0.04322727117869957" x2="0.9567727288213004" y1="0.2966316784620999" y2="0.7033683215379001" gradientUnits="objectBoundingBox">
      <stop offset="0" stop-color="#ffb200"/>
      <stop offset="0.5" stop-color="#e10057"/>
      <stop offset="1" stop-color="#5A1A80"/>
    </linearGradient>
    <linearGradient id="editing-shiny-gradient2" x1="0" x2="0" y1="0" y2="1">
      <stop offset="0.2" stop-color="#fff" stop-opacity="0.8"/>
      <stop offset="0.8" stop-color="#fff" stop-opacity="0"/>
    </linearGradient>
    <filter id="editing-shiny2" x="-100%" y="-100%" width="300%" height="300%">
      <feMorphology operator="erode" radius="2"/>
    </filter>
    <filter id="editing-shiny" x="-100%" y="-100%" width="300%" height="300%">
      <feFlood flood-color="#fff" result="flood"/>
      <feConvolveMatrix in="SourceGraphic" result="conv" order="8,8" divisor="1" kernelMatrix="0 0 0 0 0 0 0 0 0 0 0 1 1 0 0 0 0 0 0 1 1 0 0 0 0 0 1 0 0 1 0 0 0 0 1 0 0 1 0 0 0 1 0 0 0 0 1 0 0 1 1 0 0 1 1 0 0 0 0 1 1 0 0 0 "/>
      <feOffset dx="0" dy="4" in="conv" result="offset"/>
      <feComposite operator="in" in="flood" in2="offset" result="comp"/>
      <feGaussianBlur in="offset" stdDeviation="3" result="shadow"/>
      <feColorMatrix in="shadow" type="matrix" values="0.7 0 0 0 0  0 0.7 0 0 0  0 0 0.7 0 0  0 0 0 0.3 0" result="dark-shadow"/>
      <feOffset dx="0" dy="4" in="dark-shadow" result="offset-shadow"/>
      <feOffset dx="0" dy="2" in="conv" result="offset-2"/>
      <feComposite operator="out" in="offset" in2="offset-2" result="edge-diff"/>
      <feGaussianBlur in="edge-diff" stdDeviation="1" result="edge-blur"/>
      <feColorMatrix in="edge-blur" result="edge-shadow" type="matrix" values="0 0 0 0 0  0 0 0 0 0  0 0 0 0 0  0 0 0 0.5 0"/>
      <feComposite operator="in" in="edge-shadow" in2="offset" result="edge-shadow-in"/>
      <feOffset dx="0" dy="1" in="edge-shadow-in" result="edge-shadow-final"/>
      <feMerge result="out">
        <feMergeNode in="offset-shadow"/>
        <feMergeNode in="comp"/>
        <feMergeNode in="edge-shadow-final"/>
        <feMergeNode in="SourceGraphic"/>
      </feMerge>
    </filter>
  </defs>
  <g filter="url(#editing-shiny)" style="" transform="matrix(1.303592, 0, 0, 1.459555, -74.174545, -53.919491)">
    <g transform="translate(31.439992040395737, 104.47000122070312)">
      <path d="M14.34 0L0.38 0L8.51-42.24L22.59-42.24L14.34 0ZM70.08 1.28L70.08 1.28L70.08 1.28Q62.34 1.28 62.34-4.74L62.34-4.74L62.34-4.74Q62.34-7.36 63.46-12.45L63.46-12.45L63.46-12.45Q64.58-17.54 64.96-19.58L64.96-19.58L64.96-19.58Q65.86-24.26 65.86-25.73L65.86-25.73L65.86-25.73Q65.86-28.99 63.42-28.99L63.42-28.99L63.42-28.99Q61.82-28.99 60.29-26.78L60.29-26.78L60.29-26.78Q58.75-24.58 58.05-20.16L58.05-20.16L54.08 0L41.60 1.28L45.06-16.13L45.06-16.13Q45.63-19.01 46.14-22.27L46.14-22.27L46.14-22.27Q46.66-25.54 46.66-26.05L46.66-26.05L46.66-26.05Q46.66-28.99 44.48-28.99L44.48-28.99L44.48-28.99Q43.01-28.99 41.41-26.82L41.41-26.82L41.41-26.82Q39.81-24.64 38.91-20.16L38.91-20.16L35.01 0L22.40 1.28L29.12-32.64L39.55-33.92L38.46-27.46L38.46-27.46Q40.13-30.91 43.20-32.42L43.20-32.42L43.20-32.42Q46.27-33.92 51.07-33.92L51.07-33.92L51.07-33.92Q53.82-33.92 55.62-32.58L55.62-32.58L55.62-32.58Q57.41-31.23 57.98-29.06L57.98-29.06L57.98-29.06Q59.07-31.30 61.86-32.61L61.86-32.61L61.86-32.61Q64.64-33.92 68.06-33.92L68.06-33.92L68.06-33.92Q71.49-33.92 73.18-33.18L73.18-33.18L73.18-33.18Q74.88-32.45 75.90-31.23L75.90-31.23L75.90-31.23Q77.63-28.99 77.63-24.90L77.63-24.90L77.63-24.90Q77.63-20.86 75.90-12.48L75.90-12.48L75.90-12.48Q75.01-8.38 75.01-6.88L75.01-6.88L75.01-6.88Q75.01-5.38 75.87-4.48L75.87-4.48L75.87-4.48Q76.74-3.58 78.02-3.46L78.02-3.46L78.02-3.46Q77.38-1.28 75.17 0L75.17 0L75.17 0Q72.96 1.28 70.08 1.28ZM85.73-1.92L85.73-1.92L85.73-1.92Q84.22-3.58 83.55-6.21L83.55-6.21L83.55-6.21Q82.88-8.83 82.88-13.12L82.88-13.12L82.88-13.12Q82.88-17.41 84.35-21.31L84.35-21.31L84.35-21.31Q85.82-25.22 88.51-28.03L88.51-28.03L88.51-28.03Q94.02-33.92 103.10-33.92L103.10-33.92L103.10-33.92Q106.37-33.92 108.74-32.83L108.74-32.83L119.68-33.92L114.94-8.96L114.94-8.96Q114.75-8.19 114.75-6.78L114.75-6.78L114.75-6.78Q114.75-5.38 115.62-4.48L115.62-4.48L115.62-4.48Q116.48-3.58 117.76-3.46L117.76-3.46L117.76-3.46Q117.12-1.28 114.78 0L114.78 0L114.78 0Q112.45 1.28 109.82 1.28L109.82 1.28L109.82 1.28Q107.20 1.28 105.44 0.29L105.44 0.29L105.44 0.29Q103.68-0.70 103.17-2.37L103.17-2.37L103.17-2.37Q102.14-0.77 99.97 0.26L99.97 0.26L99.97 0.26Q97.79 1.28 94.88 1.28L94.88 1.28L94.88 1.28Q91.97 1.28 89.60 0.51L89.60 0.51L89.60 0.51Q87.23-0.26 85.73-1.92ZM99.23-27.90L99.23-27.90L99.23-27.90Q98.50-26.75 97.86-24.80L97.86-24.80L97.86-24.80Q97.22-22.85 96.16-17.63L96.16-17.63L96.16-17.63Q95.10-12.42 95.10-8.70L95.10-8.70L95.10-8.70Q95.10-4.99 95.68-3.90L95.68-3.90L95.68-3.90Q96.26-2.82 97.28-2.82L97.28-2.82L97.28-2.82Q99.33-2.82 100.83-4.77L100.83-4.77L100.83-4.77Q102.34-6.72 102.91-10.18L102.91-10.18L106.30-28.93L106.30-28.93Q104.96-30.08 103.39-30.08L103.39-30.08L103.39-30.08Q101.82-30.08 100.90-29.57L100.90-29.57L100.90-29.57Q99.97-29.06 99.23-27.90ZM127.42-26.75L127.42-26.75L127.42-26.75Q129.60-29.82 132.90-31.87L132.90-31.87L132.90-31.87Q136.19-33.92 140.22-33.92L140.22-33.92L140.22-33.92Q144.26-33.92 146.18-32.64L146.18-32.64L158.72-33.92L154.37-9.34L154.37-9.34Q152.13 3.20 147.39 8.13L147.39 8.13L147.39 8.13Q142.85 12.80 134.02 12.80L134.02 12.80L134.02 12.80Q127.30 12.80 123.46 10.69L123.46 10.69L123.46 10.69Q119.62 8.58 119.62 5.06L119.62 5.06L119.62 5.06Q119.62 2.43 121.60 0.93L121.60 0.93L121.60 0.93Q123.58-0.58 126.66-0.58L126.66-0.58L126.66-0.58Q129.34-0.58 131.39 0.64L131.39 0.64L131.39 0.64Q132.61 1.28 133.18 2.18L133.18 2.18L133.18 2.18Q131.71 3.46 131.71 5.57L131.71 5.57L131.71 5.57Q131.71 8.32 134.27 8.32L134.27 8.32L134.27 8.32Q138.56 8.32 140.99-1.79L140.99-1.79L140.99-1.79Q141.70-4.54 142.27-7.30L142.27-7.30L142.27-7.30Q139.39-3.78 132.86-3.78L132.86-3.78L132.86-3.78Q128.32-3.78 125.70-5.95L125.70-5.95L125.70-5.95Q123.07-8.13 123.07-13.25L123.07-13.25L123.07-13.25Q123.07-16.45 124.16-20.06L124.16-20.06L124.16-20.06Q125.25-23.68 127.42-26.75ZM135.74-13.06L135.74-13.06L135.74-13.06Q135.74-8.70 137.98-8.70L137.98-8.70L137.98-8.70Q139.52-8.70 140.99-10.37L140.99-10.37L140.99-10.37Q142.14-11.71 142.59-13.70L142.59-13.70L145.86-30.14L145.86-30.14Q145.54-30.21 145.22-30.34L145.22-30.34L145.22-30.34Q144.58-30.59 143.74-30.59L143.74-30.59L143.74-30.59Q139.84-30.59 137.54-24.19L137.54-24.19L137.54-24.19Q135.74-19.20 135.74-13.06ZM187.14-10.82L187.14-10.82L187.14-10.82Q188.74-9.73 188.74-7.33L188.74-7.33L188.74-7.33Q188.74-4.93 187.52-3.39L187.52-3.39L187.52-3.39Q186.30-1.86 184.32-0.83L184.32-0.83L184.32-0.83Q180.22 1.28 175.81 1.28L175.81 1.28L175.81 1.28Q171.39 1.28 168.80 0.32L168.80 0.32L168.80 0.32Q166.21-0.64 164.48-2.43L164.48-2.43L164.48-2.43Q161.09-5.82 161.09-12.03L161.09-12.03L161.09-12.03Q161.09-21.70 166.34-27.58L166.34-27.58L166.34-27.58Q171.97-33.92 181.76-33.92L181.76-33.92L181.76-33.92Q187.84-33.92 190.85-31.36L190.85-31.36L190.85-31.36Q193.09-29.44 193.09-26.30L193.09-26.30L193.09-26.30Q193.09-15.04 173.63-15.04L173.63-15.04L173.63-15.04Q173.38-13.38 173.38-11.97L173.38-11.97L173.38-11.97Q173.38-9.02 174.69-7.90L174.69-7.90L174.69-7.90Q176-6.78 178.43-6.78L178.43-6.78L178.43-6.78Q180.86-6.78 183.46-7.90L183.46-7.90L183.46-7.90Q186.05-9.02 187.14-10.82ZM174.08-17.79L174.08-17.79L174.08-17.79Q178.62-17.79 181.25-20.61L181.25-20.61L181.25-20.61Q183.87-23.30 183.87-27.58L183.87-27.58L183.87-27.58Q183.87-29.06 183.33-29.86L183.33-29.86L183.33-29.86Q182.78-30.66 181.70-30.66L181.70-30.66L181.70-30.66Q180.61-30.66 179.68-30.24L179.68-30.24L179.68-30.24Q178.75-29.82 177.79-28.42L177.79-28.42L177.79-28.42Q175.42-25.22 174.08-17.79ZM234.37-20.61L247.30-21.76L247.30-21.76Q242.69-11.65 242.69 0.06L242.69 0.06L242.69 0.06Q240.96 1.28 238.43 1.28L238.43 1.28L238.43 1.28Q235.90 1.28 234.30 0.10L234.30 0.10L234.30 0.10Q232.70-1.09 232.38-2.30L232.38-2.30L232.38-2.30Q230.78-0.64 228.19 0.32L228.19 0.32L228.19 0.32Q225.60 1.28 222.85 1.28L222.85 1.28L222.85 1.28Q220.10 1.28 217.70 0.38L217.70 0.38L217.70 0.38Q215.30-0.51 213.44-2.50L213.44-2.50L213.44-2.50Q209.34-6.85 209.34-15.10L209.34-15.10L209.34-15.10Q209.34-27.90 216.19-35.58L216.19-35.58L216.19-35.58Q223.23-43.52 235.71-43.52L235.71-43.52L235.71-43.52Q244.35-43.52 247.42-39.04L247.42-39.04L247.42-39.04Q248.38-37.63 248.38-35.94L248.38-35.94L248.38-35.94Q248.38-34.24 247.65-32.80L247.65-32.80L247.65-32.80Q246.91-31.36 245.76-30.21L245.76-30.21L245.76-30.21Q243.01-27.65 239.62-27.65L239.62-27.65L239.62-27.65Q238.27-27.65 236.99-28.10L236.99-28.10L236.99-28.10Q237.25-30.02 237.25-32.26L237.25-32.26L237.25-32.26Q237.25-34.50 237.09-35.52L237.09-35.52L237.09-35.52Q236.93-36.54 236.54-37.38L236.54-37.38L236.54-37.38Q235.71-39.10 233.89-39.10L233.89-39.10L233.89-39.10Q232.06-39.10 230.05-37.15L230.05-37.15L230.05-37.15Q228.03-35.20 226.43-32L226.43-32L226.43-32Q222.91-24.83 222.91-16.19L222.91-16.19L222.91-16.19Q222.91-12.22 224.45-9.41L224.45-9.41L224.45-9.41Q226.11-6.34 229.06-6.34L229.06-6.34L229.06-6.34Q230.08-6.34 231.01-6.85L231.01-6.85L231.01-6.85Q231.94-7.36 232.32-7.74L232.32-7.74L234.37-20.61ZM253.22-1.92L253.22-1.92L253.22-1.92Q251.71-3.58 251.04-6.21L251.04-6.21L251.04-6.21Q250.37-8.83 250.37-13.12L250.37-13.12L250.37-13.12Q250.37-17.41 251.84-21.31L251.84-21.31L251.84-21.31Q253.31-25.22 256-28.03L256-28.03L256-28.03Q261.50-33.92 270.59-33.92L270.59-33.92L270.59-33.92Q273.86-33.92 276.22-32.83L276.22-32.83L287.17-33.92L282.43-8.96L282.43-8.96Q282.24-8.19 282.24-6.78L282.24-6.78L282.24-6.78Q282.24-5.38 283.10-4.48L283.10-4.48L283.10-4.48Q283.97-3.58 285.25-3.46L285.25-3.46L285.25-3.46Q284.61-1.28 282.27 0L282.27 0L282.27 0Q279.94 1.28 277.31 1.28L277.31 1.28L277.31 1.28Q274.69 1.28 272.93 0.29L272.93 0.29L272.93 0.29Q271.17-0.70 270.66-2.37L270.66-2.37L270.66-2.37Q269.63-0.77 267.46 0.26L267.46 0.26L267.46 0.26Q265.28 1.28 262.37 1.28L262.37 1.28L262.37 1.28Q259.46 1.28 257.09 0.51L257.09 0.51L257.09 0.51Q254.72-0.26 253.22-1.92ZM266.72-27.90L266.72-27.90L266.72-27.90Q265.98-26.75 265.34-24.80L265.34-24.80L265.34-24.80Q264.70-22.85 263.65-17.63L263.65-17.63L263.65-17.63Q262.59-12.42 262.59-8.70L262.59-8.70L262.59-8.70Q262.59-4.99 263.17-3.90L263.17-3.90L263.17-3.90Q263.74-2.82 264.77-2.82L264.77-2.82L264.77-2.82Q266.82-2.82 268.32-4.77L268.32-4.77L268.32-4.77Q269.82-6.72 270.40-10.18L270.40-10.18L273.79-28.93L273.79-28.93Q272.45-30.08 270.88-30.08L270.88-30.08L270.88-30.08Q269.31-30.08 268.38-29.57L268.38-29.57L268.38-29.57Q267.46-29.06 266.72-27.90ZM305.92-3.52L305.92-3.52L305.92-3.52Q303.94 1.28 297.60 1.28L297.60 1.28L297.60 1.28Q294.40 1.28 292.35-0.96L292.35-0.96L292.35-0.96Q290.69-2.82 290.69-4.93L290.69-4.93L290.69-4.93Q290.69-9.73 292.93-20.22L292.93-20.22L297.60-44.80L310.59-46.08L304.38-13.70L304.38-13.70Q303.30-8.96 303.30-7.30L303.30-7.30L303.30-7.30Q303.30-3.65 305.92-3.52ZM326.66-3.52L326.66-3.52L326.66-3.52Q324.67 1.28 318.34 1.28L318.34 1.28L318.34 1.28Q315.14 1.28 313.09-0.96L313.09-0.96L313.09-0.96Q311.42-2.82 311.42-4.93L311.42-4.93L311.42-4.93Q311.42-9.73 313.66-20.22L313.66-20.22L318.34-44.80L331.33-46.08L325.12-13.70L325.12-13.70Q324.03-8.96 324.03-7.30L324.03-7.30L324.03-7.30Q324.03-3.65 326.66-3.52ZM358.02-10.82L358.02-10.82L358.02-10.82Q359.62-9.73 359.62-7.33L359.62-7.33L359.62-7.33Q359.62-4.93 358.40-3.39L358.40-3.39L358.40-3.39Q357.18-1.86 355.20-0.83L355.20-0.83L355.20-0.83Q351.10 1.28 346.69 1.28L346.69 1.28L346.69 1.28Q342.27 1.28 339.68 0.32L339.68 0.32L339.68 0.32Q337.09-0.64 335.36-2.43L335.36-2.43L335.36-2.43Q331.97-5.82 331.97-12.03L331.97-12.03L331.97-12.03Q331.97-21.70 337.22-27.58L337.22-27.58L337.22-27.58Q342.85-33.92 352.64-33.92L352.64-33.92L352.64-33.92Q358.72-33.92 361.73-31.36L361.73-31.36L361.73-31.36Q363.97-29.44 363.97-26.30L363.97-26.30L363.97-26.30Q363.97-15.04 344.51-15.04L344.51-15.04L344.51-15.04Q344.26-13.38 344.26-11.97L344.26-11.97L344.26-11.97Q344.26-9.02 345.57-7.90L345.57-7.90L345.57-7.90Q346.88-6.78 349.31-6.78L349.31-6.78L349.31-6.78Q351.74-6.78 354.34-7.90L354.34-7.90L354.34-7.90Q356.93-9.02 358.02-10.82ZM344.96-17.79L344.96-17.79L344.96-17.79Q349.50-17.79 352.13-20.61L352.13-20.61L352.13-20.61Q354.75-23.30 354.75-27.58L354.75-27.58L354.75-27.58Q354.75-29.06 354.21-29.86L354.21-29.86L354.21-29.86Q353.66-30.66 352.58-30.66L352.58-30.66L352.58-30.66Q351.49-30.66 350.56-30.24L350.56-30.24L350.56-30.24Q349.63-29.82 348.67-28.42L348.67-28.42L348.67-28.42Q346.30-25.22 344.96-17.79ZM386.18-17.98L386.18-17.98L386.18-17.98Q388.48-22.08 388.48-26.24L388.48-26.24L388.48-26.24Q388.48-28.99 386.50-28.99L386.50-28.99L386.50-28.99Q384.96-28.99 383.36-26.37L383.36-26.37L383.36-26.37Q381.70-23.74 381.18-20.35L381.18-20.35L377.86 0L364.61 1.28L371.14-32.64L381.70-33.92L380.54-27.46L380.54-27.46Q383.68-33.92 390.72-33.92L390.72-33.92L390.72-33.92Q394.43-33.92 396.45-32L396.45-32L396.45-32Q398.46-30.08 398.46-26.14L398.46-26.14L398.46-26.14Q398.46-22.21 395.87-19.71L395.87-19.71L395.87-19.71Q393.28-17.22 388.86-17.22L388.86-17.22L388.86-17.22Q386.94-17.22 386.18-17.98ZM419.84-7.23L419.84-7.23L419.84-7.23Q416.51-3.78 410.43-3.78L410.43-3.78L410.43-3.78Q402.82-3.78 401.22-9.34L401.22-9.34L401.22-9.34Q400.70-11.01 400.70-12.86L400.70-12.86L400.70-12.86Q400.70-14.72 401.09-16.64L401.09-16.64L404.10-32.64L417.09-33.92L413.57-15.30L413.57-15.30Q413.44-14.46 413.25-13.57L413.25-13.57L413.25-13.57Q413.06-12.67 413.06-11.74L413.06-11.74L413.06-11.74Q413.06-10.82 413.38-10.21L413.38-10.21L413.38-10.21Q413.70-9.60 414.14-9.22L414.14-9.22L414.14-9.22Q414.91-8.70 416.29-8.70L416.29-8.70L416.29-8.70Q417.66-8.70 418.85-10.37L418.85-10.37L418.85-10.37Q420.03-12.03 420.61-14.91L420.61-14.91L424.13-32.64L436.74-33.92L431.94-8.77L431.94-8.77Q429.57 3.52 424.70 8.38L424.70 8.38L424.70 8.38Q422.21 10.88 418.98 11.87L418.98 11.87L418.98 11.87Q415.74 12.86 411.58 12.86L411.58 12.86L411.58 12.86Q404.86 12.86 401.02 10.75L401.02 10.75L401.02 10.75Q397.18 8.64 397.18 5.12L397.18 5.12L397.18 5.12Q397.18 2.50 399.17 0.99L399.17 0.99L399.17 0.99Q401.15-0.51 404.22-0.51L404.22-0.51L404.22-0.51Q406.91-0.51 408.96 0.64L408.96 0.64L408.96 0.64Q410.18 1.34 410.75 2.24L410.75 2.24L410.75 2.24Q409.28 3.52 409.28 5.63L409.28 5.63L409.28 5.63Q409.28 8.45 411.84 8.45L411.84 8.45L411.84 8.45Q416.06 8.45 418.50-1.28L418.50-1.28L418.50-1.28Q419.20-4.16 419.84-7.23Z" fill="url(#editing-shiny-gradient)"/>
    </g>
  </g>
  <g filter="url(#editing-shiny2)" style="" transform="matrix(1.308107, 0, 0, 1.476265, -74.318207, -55.880199)">
    <g transform="translate(31.440043538808823, 104.47000122070312)">
      <path d="M14.34 0L0.38 0L8.51-42.24L22.59-42.24L14.34 0ZM70.08 1.28L70.08 1.28L70.08 1.28Q62.34 1.28 62.34-4.74L62.34-4.74L62.34-4.74Q62.34-7.36 63.46-12.45L63.46-12.45L63.46-12.45Q64.58-17.54 64.96-19.58L64.96-19.58L64.96-19.58Q65.86-24.26 65.86-25.73L65.86-25.73L65.86-25.73Q65.86-28.99 63.42-28.99L63.42-28.99L63.42-28.99Q61.82-28.99 60.29-26.78L60.29-26.78L60.29-26.78Q58.75-24.58 58.05-20.16L58.05-20.16L54.08 0L41.60 1.28L45.06-16.13L45.06-16.13Q45.63-19.01 46.14-22.27L46.14-22.27L46.14-22.27Q46.66-25.54 46.66-26.05L46.66-26.05L46.66-26.05Q46.66-28.99 44.48-28.99L44.48-28.99L44.48-28.99Q43.01-28.99 41.41-26.82L41.41-26.82L41.41-26.82Q39.81-24.64 38.91-20.16L38.91-20.16L35.01 0L22.40 1.28L29.12-32.64L39.55-33.92L38.46-27.46L38.46-27.46Q40.13-30.91 43.20-32.42L43.20-32.42L43.20-32.42Q46.27-33.92 51.07-33.92L51.07-33.92L51.07-33.92Q53.82-33.92 55.62-32.58L55.62-32.58L55.62-32.58Q57.41-31.23 57.98-29.06L57.98-29.06L57.98-29.06Q59.07-31.30 61.86-32.61L61.86-32.61L61.86-32.61Q64.64-33.92 68.06-33.92L68.06-33.92L68.06-33.92Q71.49-33.92 73.18-33.18L73.18-33.18L73.18-33.18Q74.88-32.45 75.90-31.23L75.90-31.23L75.90-31.23Q77.63-28.99 77.63-24.90L77.63-24.90L77.63-24.90Q77.63-20.86 75.90-12.48L75.90-12.48L75.90-12.48Q75.01-8.38 75.01-6.88L75.01-6.88L75.01-6.88Q75.01-5.38 75.87-4.48L75.87-4.48L75.87-4.48Q76.74-3.58 78.02-3.46L78.02-3.46L78.02-3.46Q77.38-1.28 75.17 0L75.17 0L75.17 0Q72.96 1.28 70.08 1.28ZM85.73-1.92L85.73-1.92L85.73-1.92Q84.22-3.58 83.55-6.21L83.55-6.21L83.55-6.21Q82.88-8.83 82.88-13.12L82.88-13.12L82.88-13.12Q82.88-17.41 84.35-21.31L84.35-21.31L84.35-21.31Q85.82-25.22 88.51-28.03L88.51-28.03L88.51-28.03Q94.02-33.92 103.10-33.92L103.10-33.92L103.10-33.92Q106.37-33.92 108.74-32.83L108.74-32.83L119.68-33.92L114.94-8.96L114.94-8.96Q114.75-8.19 114.75-6.78L114.75-6.78L114.75-6.78Q114.75-5.38 115.62-4.48L115.62-4.48L115.62-4.48Q116.48-3.58 117.76-3.46L117.76-3.46L117.76-3.46Q117.12-1.28 114.78 0L114.78 0L114.78 0Q112.45 1.28 109.82 1.28L109.82 1.28L109.82 1.28Q107.20 1.28 105.44 0.29L105.44 0.29L105.44 0.29Q103.68-0.70 103.17-2.37L103.17-2.37L103.17-2.37Q102.14-0.77 99.97 0.26L99.97 0.26L99.97 0.26Q97.79 1.28 94.88 1.28L94.88 1.28L94.88 1.28Q91.97 1.28 89.60 0.51L89.60 0.51L89.60 0.51Q87.23-0.26 85.73-1.92ZM99.23-27.90L99.23-27.90L99.23-27.90Q98.50-26.75 97.86-24.80L97.86-24.80L97.86-24.80Q97.22-22.85 96.16-17.63L96.16-17.63L96.16-17.63Q95.10-12.42 95.10-8.70L95.10-8.70L95.10-8.70Q95.10-4.99 95.68-3.90L95.68-3.90L95.68-3.90Q96.26-2.82 97.28-2.82L97.28-2.82L97.28-2.82Q99.33-2.82 100.83-4.77L100.83-4.77L100.83-4.77Q102.34-6.72 102.91-10.18L102.91-10.18L106.30-28.93L106.30-28.93Q104.96-30.08 103.39-30.08L103.39-30.08L103.39-30.08Q101.82-30.08 100.90-29.57L100.90-29.57L100.90-29.57Q99.97-29.06 99.23-27.90ZM127.42-26.75L127.42-26.75L127.42-26.75Q129.60-29.82 132.90-31.87L132.90-31.87L132.90-31.87Q136.19-33.92 140.22-33.92L140.22-33.92L140.22-33.92Q144.26-33.92 146.18-32.64L146.18-32.64L158.72-33.92L154.37-9.34L154.37-9.34Q152.13 3.20 147.39 8.13L147.39 8.13L147.39 8.13Q142.85 12.80 134.02 12.80L134.02 12.80L134.02 12.80Q127.30 12.80 123.46 10.69L123.46 10.69L123.46 10.69Q119.62 8.58 119.62 5.06L119.62 5.06L119.62 5.06Q119.62 2.43 121.60 0.93L121.60 0.93L121.60 0.93Q123.58-0.58 126.66-0.58L126.66-0.58L126.66-0.58Q129.34-0.58 131.39 0.64L131.39 0.64L131.39 0.64Q132.61 1.28 133.18 2.18L133.18 2.18L133.18 2.18Q131.71 3.46 131.71 5.57L131.71 5.57L131.71 5.57Q131.71 8.32 134.27 8.32L134.27 8.32L134.27 8.32Q138.56 8.32 140.99-1.79L140.99-1.79L140.99-1.79Q141.70-4.54 142.27-7.30L142.27-7.30L142.27-7.30Q139.39-3.78 132.86-3.78L132.86-3.78L132.86-3.78Q128.32-3.78 125.70-5.95L125.70-5.95L125.70-5.95Q123.07-8.13 123.07-13.25L123.07-13.25L123.07-13.25Q123.07-16.45 124.16-20.06L124.16-20.06L124.16-20.06Q125.25-23.68 127.42-26.75ZM135.74-13.06L135.74-13.06L135.74-13.06Q135.74-8.70 137.98-8.70L137.98-8.70L137.98-8.70Q139.52-8.70 140.99-10.37L140.99-10.37L140.99-10.37Q142.14-11.71 142.59-13.70L142.59-13.70L145.86-30.14L145.86-30.14Q145.54-30.21 145.22-30.34L145.22-30.34L145.22-30.34Q144.58-30.59 143.74-30.59L143.74-30.59L143.74-30.59Q139.84-30.59 137.54-24.19L137.54-24.19L137.54-24.19Q135.74-19.20 135.74-13.06ZM187.14-10.82L187.14-10.82L187.14-10.82Q188.74-9.73 188.74-7.33L188.74-7.33L188.74-7.33Q188.74-4.93 187.52-3.39L187.52-3.39L187.52-3.39Q186.30-1.86 184.32-0.83L184.32-0.83L184.32-0.83Q180.22 1.28 175.81 1.28L175.81 1.28L175.81 1.28Q171.39 1.28 168.80 0.32L168.80 0.32L168.80 0.32Q166.21-0.64 164.48-2.43L164.48-2.43L164.48-2.43Q161.09-5.82 161.09-12.03L161.09-12.03L161.09-12.03Q161.09-21.70 166.34-27.58L166.34-27.58L166.34-27.58Q171.97-33.92 181.76-33.92L181.76-33.92L181.76-33.92Q187.84-33.92 190.85-31.36L190.85-31.36L190.85-31.36Q193.09-29.44 193.09-26.30L193.09-26.30L193.09-26.30Q193.09-15.04 173.63-15.04L173.63-15.04L173.63-15.04Q173.38-13.38 173.38-11.97L173.38-11.97L173.38-11.97Q173.38-9.02 174.69-7.90L174.69-7.90L174.69-7.90Q176-6.78 178.43-6.78L178.43-6.78L178.43-6.78Q180.86-6.78 183.46-7.90L183.46-7.90L183.46-7.90Q186.05-9.02 187.14-10.82ZM174.08-17.79L174.08-17.79L174.08-17.79Q178.62-17.79 181.25-20.61L181.25-20.61L181.25-20.61Q183.87-23.30 183.87-27.58L183.87-27.58L183.87-27.58Q183.87-29.06 183.33-29.86L183.33-29.86L183.33-29.86Q182.78-30.66 181.70-30.66L181.70-30.66L181.70-30.66Q180.61-30.66 179.68-30.24L179.68-30.24L179.68-30.24Q178.75-29.82 177.79-28.42L177.79-28.42L177.79-28.42Q175.42-25.22 174.08-17.79ZM234.37-20.61L247.30-21.76L247.30-21.76Q242.69-11.65 242.69 0.06L242.69 0.06L242.69 0.06Q240.96 1.28 238.43 1.28L238.43 1.28L238.43 1.28Q235.90 1.28 234.30 0.10L234.30 0.10L234.30 0.10Q232.70-1.09 232.38-2.30L232.38-2.30L232.38-2.30Q230.78-0.64 228.19 0.32L228.19 0.32L228.19 0.32Q225.60 1.28 222.85 1.28L222.85 1.28L222.85 1.28Q220.10 1.28 217.70 0.38L217.70 0.38L217.70 0.38Q215.30-0.51 213.44-2.50L213.44-2.50L213.44-2.50Q209.34-6.85 209.34-15.10L209.34-15.10L209.34-15.10Q209.34-27.90 216.19-35.58L216.19-35.58L216.19-35.58Q223.23-43.52 235.71-43.52L235.71-43.52L235.71-43.52Q244.35-43.52 247.42-39.04L247.42-39.04L247.42-39.04Q248.38-37.63 248.38-35.94L248.38-35.94L248.38-35.94Q248.38-34.24 247.65-32.80L247.65-32.80L247.65-32.80Q246.91-31.36 245.76-30.21L245.76-30.21L245.76-30.21Q243.01-27.65 239.62-27.65L239.62-27.65L239.62-27.65Q238.27-27.65 236.99-28.10L236.99-28.10L236.99-28.10Q237.25-30.02 237.25-32.26L237.25-32.26L237.25-32.26Q237.25-34.50 237.09-35.52L237.09-35.52L237.09-35.52Q236.93-36.54 236.54-37.38L236.54-37.38L236.54-37.38Q235.71-39.10 233.89-39.10L233.89-39.10L233.89-39.10Q232.06-39.10 230.05-37.15L230.05-37.15L230.05-37.15Q228.03-35.20 226.43-32L226.43-32L226.43-32Q222.91-24.83 222.91-16.19L222.91-16.19L222.91-16.19Q222.91-12.22 224.45-9.41L224.45-9.41L224.45-9.41Q226.11-6.34 229.06-6.34L229.06-6.34L229.06-6.34Q230.08-6.34 231.01-6.85L231.01-6.85L231.01-6.85Q231.94-7.36 232.32-7.74L232.32-7.74L234.37-20.61ZM253.22-1.92L253.22-1.92L253.22-1.92Q251.71-3.58 251.04-6.21L251.04-6.21L251.04-6.21Q250.37-8.83 250.37-13.12L250.37-13.12L250.37-13.12Q250.37-17.41 251.84-21.31L251.84-21.31L251.84-21.31Q253.31-25.22 256-28.03L256-28.03L256-28.03Q261.50-33.92 270.59-33.92L270.59-33.92L270.59-33.92Q273.86-33.92 276.22-32.83L276.22-32.83L287.17-33.92L282.43-8.96L282.43-8.96Q282.24-8.19 282.24-6.78L282.24-6.78L282.24-6.78Q282.24-5.38 283.10-4.48L283.10-4.48L283.10-4.48Q283.97-3.58 285.25-3.46L285.25-3.46L285.25-3.46Q284.61-1.28 282.27 0L282.27 0L282.27 0Q279.94 1.28 277.31 1.28L277.31 1.28L277.31 1.28Q274.69 1.28 272.93 0.29L272.93 0.29L272.93 0.29Q271.17-0.70 270.66-2.37L270.66-2.37L270.66-2.37Q269.63-0.77 267.46 0.26L267.46 0.26L267.46 0.26Q265.28 1.28 262.37 1.28L262.37 1.28L262.37 1.28Q259.46 1.28 257.09 0.51L257.09 0.51L257.09 0.51Q254.72-0.26 253.22-1.92ZM266.72-27.90L266.72-27.90L266.72-27.90Q265.98-26.75 265.34-24.80L265.34-24.80L265.34-24.80Q264.70-22.85 263.65-17.63L263.65-17.63L263.65-17.63Q262.59-12.42 262.59-8.70L262.59-8.70L262.59-8.70Q262.59-4.99 263.17-3.90L263.17-3.90L263.17-3.90Q263.74-2.82 264.77-2.82L264.77-2.82L264.77-2.82Q266.82-2.82 268.32-4.77L268.32-4.77L268.32-4.77Q269.82-6.72 270.40-10.18L270.40-10.18L273.79-28.93L273.79-28.93Q272.45-30.08 270.88-30.08L270.88-30.08L270.88-30.08Q269.31-30.08 268.38-29.57L268.38-29.57L268.38-29.57Q267.46-29.06 266.72-27.90ZM305.92-3.52L305.92-3.52L305.92-3.52Q303.94 1.28 297.60 1.28L297.60 1.28L297.60 1.28Q294.40 1.28 292.35-0.96L292.35-0.96L292.35-0.96Q290.69-2.82 290.69-4.93L290.69-4.93L290.69-4.93Q290.69-9.73 292.93-20.22L292.93-20.22L297.60-44.80L310.59-46.08L304.38-13.70L304.38-13.70Q303.30-8.96 303.30-7.30L303.30-7.30L303.30-7.30Q303.30-3.65 305.92-3.52ZM326.66-3.52L326.66-3.52L326.66-3.52Q324.67 1.28 318.34 1.28L318.34 1.28L318.34 1.28Q315.14 1.28 313.09-0.96L313.09-0.96L313.09-0.96Q311.42-2.82 311.42-4.93L311.42-4.93L311.42-4.93Q311.42-9.73 313.66-20.22L313.66-20.22L318.34-44.80L331.33-46.08L325.12-13.70L325.12-13.70Q324.03-8.96 324.03-7.30L324.03-7.30L324.03-7.30Q324.03-3.65 326.66-3.52ZM358.02-10.82L358.02-10.82L358.02-10.82Q359.62-9.73 359.62-7.33L359.62-7.33L359.62-7.33Q359.62-4.93 358.40-3.39L358.40-3.39L358.40-3.39Q357.18-1.86 355.20-0.83L355.20-0.83L355.20-0.83Q351.10 1.28 346.69 1.28L346.69 1.28L346.69 1.28Q342.27 1.28 339.68 0.32L339.68 0.32L339.68 0.32Q337.09-0.64 335.36-2.43L335.36-2.43L335.36-2.43Q331.97-5.82 331.97-12.03L331.97-12.03L331.97-12.03Q331.97-21.70 337.22-27.58L337.22-27.58L337.22-27.58Q342.85-33.92 352.64-33.92L352.64-33.92L352.64-33.92Q358.72-33.92 361.73-31.36L361.73-31.36L361.73-31.36Q363.97-29.44 363.97-26.30L363.97-26.30L363.97-26.30Q363.97-15.04 344.51-15.04L344.51-15.04L344.51-15.04Q344.26-13.38 344.26-11.97L344.26-11.97L344.26-11.97Q344.26-9.02 345.57-7.90L345.57-7.90L345.57-7.90Q346.88-6.78 349.31-6.78L349.31-6.78L349.31-6.78Q351.74-6.78 354.34-7.90L354.34-7.90L354.34-7.90Q356.93-9.02 358.02-10.82ZM344.96-17.79L344.96-17.79L344.96-17.79Q349.50-17.79 352.13-20.61L352.13-20.61L352.13-20.61Q354.75-23.30 354.75-27.58L354.75-27.58L354.75-27.58Q354.75-29.06 354.21-29.86L354.21-29.86L354.21-29.86Q353.66-30.66 352.58-30.66L352.58-30.66L352.58-30.66Q351.49-30.66 350.56-30.24L350.56-30.24L350.56-30.24Q349.63-29.82 348.67-28.42L348.67-28.42L348.67-28.42Q346.30-25.22 344.96-17.79ZM386.18-17.98L386.18-17.98L386.18-17.98Q388.48-22.08 388.48-26.24L388.48-26.24L388.48-26.24Q388.48-28.99 386.50-28.99L386.50-28.99L386.50-28.99Q384.96-28.99 383.36-26.37L383.36-26.37L383.36-26.37Q381.70-23.74 381.18-20.35L381.18-20.35L377.86 0L364.61 1.28L371.14-32.64L381.70-33.92L380.54-27.46L380.54-27.46Q383.68-33.92 390.72-33.92L390.72-33.92L390.72-33.92Q394.43-33.92 396.45-32L396.45-32L396.45-32Q398.46-30.08 398.46-26.14L398.46-26.14L398.46-26.14Q398.46-22.21 395.87-19.71L395.87-19.71L395.87-19.71Q393.28-17.22 388.86-17.22L388.86-17.22L388.86-17.22Q386.94-17.22 386.18-17.98ZM419.84-7.23L419.84-7.23L419.84-7.23Q416.51-3.78 410.43-3.78L410.43-3.78L410.43-3.78Q402.82-3.78 401.22-9.34L401.22-9.34L401.22-9.34Q400.70-11.01 400.70-12.86L400.70-12.86L400.70-12.86Q400.70-14.72 401.09-16.64L401.09-16.64L404.10-32.64L417.09-33.92L413.57-15.30L413.57-15.30Q413.44-14.46 413.25-13.57L413.25-13.57L413.25-13.57Q413.06-12.67 413.06-11.74L413.06-11.74L413.06-11.74Q413.06-10.82 413.38-10.21L413.38-10.21L413.38-10.21Q413.70-9.60 414.14-9.22L414.14-9.22L414.14-9.22Q414.91-8.70 416.29-8.70L416.29-8.70L416.29-8.70Q417.66-8.70 418.85-10.37L418.85-10.37L418.85-10.37Q420.03-12.03 420.61-14.91L420.61-14.91L424.13-32.64L436.74-33.92L431.94-8.77L431.94-8.77Q429.57 3.52 424.70 8.38L424.70 8.38L424.70 8.38Q422.21 10.88 418.98 11.87L418.98 11.87L418.98 11.87Q415.74 12.86 411.58 12.86L411.58 12.86L411.58 12.86Q404.86 12.86 401.02 10.75L401.02 10.75L401.02 10.75Q397.18 8.64 397.18 5.12L397.18 5.12L397.18 5.12Q397.18 2.50 399.17 0.99L399.17 0.99L399.17 0.99Q401.15-0.51 404.22-0.51L404.22-0.51L404.22-0.51Q406.91-0.51 408.96 0.64L408.96 0.64L408.96 0.64Q410.18 1.34 410.75 2.24L410.75 2.24L410.75 2.24Q409.28 3.52 409.28 5.63L409.28 5.63L409.28 5.63Q409.28 8.45 411.84 8.45L411.84 8.45L411.84 8.45Q416.06 8.45 418.50-1.28L418.50-1.28L418.50-1.28Q419.20-4.16 419.84-7.23Z" fill="url(#editing-shiny-gradient2)"/>
    </g>
  </g>
  <style>text {
  font-size: 64px;
  font-family: Arial Black;
  dominant-baseline: central;
  text-anchor: middle;
}</style>
</svg>